# xmcd
#
# Track frame offsets: 
#        150
#        22762
#        35594
#        49230
#        64469
#        82873
#        95003
#        112247
#        125632
#        138850
#        154479
#        169253
#        185208
#
# Disc length: 2584 seconds
#
# Revision: 1
# Processed by: cddbd v1.5.2PL0 Copyright (c) Steve Scherf et al.
# Submitted via: ExactAudioCopyFreeDBPlugin 1.0
#
DISCID=bd0a160d
DTITLE=Bourbon Boys - Shotguns, Trucks and Cattle
DYEAR=2013
DGENRE=Country
TTITLE0=Beast of Bourbon
TTITLE1=Rattlesnake
TTITLE2=Hellfire
TTITLE3=Hillbilly Heart
TTITLE4=Pour Some Bourbon On Me
TTITLE5=Bowhunting Song
TTITLE6=Coromant Blues
TTITLE7=Country Highway
TTITLE8=Rock 'N' Rollin Man
TTITLE9=Moonshine Boulevard
TTITLE10=Drinking My Woman Away
TTITLE11=Road 99
TTITLE12=Rock 'N' Roll, Women and Booze
EXTD=
EXTT0=
EXTT1=
EXTT2=
EXTT3=
EXTT4=
EXTT5=
EXTT6=
EXTT7=
EXTT8=
EXTT9=
EXTT10=
EXTT11=
EXTT12=
PLAYORDER=
